<?xml version="1.0" encoding="utf-8"?>
<!-- Generator: Adobe Illustrator 24.0.2, SVG Export Plug-In . SVG Version: 6.00 Build 0)  -->
<svg version="1.1" id="Layer_1" xmlns="http://www.w3.org/2000/svg" xmlns:xlink="http://www.w3.org/1999/xlink" x="0px" y="0px"
	 viewBox="0 0 55 55" style="enable-background:new 0 0 55 55;" xml:space="preserve">
<style type="text/css">
	.st0{fill:url(#SVGID_1_);}
	.st1{fill:none;stroke:url(#SVGID_2_);stroke-width:2;stroke-miterlimit:10;}
	.st2{fill:#FFFFFF;}
	.st3{fill:#AAAAAA;}
	.st4{fill:#C0C1C3;}
	.st5{fill:#949699;}
</style>
<linearGradient id="SVGID_1_" gradientUnits="userSpaceOnUse" x1="27.5" y1="3" x2="27.5" y2="52">
	<stop  offset="0" style="stop-color:#2AC8FA"/>
	<stop  offset="1" style="stop-color:#1F66EB"/>
</linearGradient>
<path class="st0" d="M46.5,52H8.5C5.5,52,3,49.5,3,46.5V8.5C3,5.5,5.5,3,8.5,3h37.9C49.5,3,52,5.5,52,8.5v37.9
	C52,49.5,49.5,52,46.5,52z"/>
<linearGradient id="SVGID_2_" gradientUnits="userSpaceOnUse" x1="27.5" y1="2" x2="27.5" y2="53">
	<stop  offset="0" style="stop-color:#EEEEEE"/>
	<stop  offset="1" style="stop-color:#BBBBBB"/>
</linearGradient>
<path class="st1" d="M46.5,52H8.5C5.5,52,3,49.5,3,46.5V8.5C3,5.5,5.5,3,8.5,3h37.9C49.5,3,52,5.5,52,8.5v37.9
	C52,49.5,49.5,52,46.5,52z"/>
<g>
	<polygon class="st2" points="27.7,7.8 9,27.8 21.4,32.2 	"/>
	<polygon class="st3" points="21.4,32.2 27.5,47.2 9,27.8 	"/>
	<polygon class="st4" points="46,27.8 21.4,32.2 27.7,7.8 	"/>
	<polygon class="st5" points="21.4,32.2 46,27.8 27.5,47.2 	"/>
</g>
</svg>
