<svg xmlns="http://www.w3.org/2000/svg" width="0" height="0">

	<svg id="icon-tool-move" viewBox="0 0 13 13">
		<style type="text/css">
			.st0{fill:#333333;}
			.st1{fill:#33333360;}
		</style>
		<polygon class="st0" points="8,2.2 6.5,0 5,2.2 6,2.2 6,4 7,4 7,2.2 "/>
		<polygon class="st0" points="5,10.8 6.5,13 8,10.8 7,10.8 7,9 6,9 6,10.8 "/>
		<polygon class="st0" points="10.8,8 13,6.5 10.8,5 10.8,6 9,6 9,7 10.8,7 "/>
		<polygon class="st0" points="2.2,5 0,6.5 2.2,8 2.2,7 4,7 4,6 2.2,6 "/>
		<circle class="st1" cx="6.5" cy="6.5" r="2"/>
	</svg>

	<svg id="icon-tool-rotate" viewBox="0 0 13 13">
		<style type="text/css">
			.st0{fill:#333333;}
			.st1{fill:#33333360;}
		</style>
		<path class="st0" d="M11.5,4.2L10,6.4h1v0.1C11,9,9,11,6.5,11c-1.4,0-2.7-0.7-3.6-1.8L2.1,9.8c1,1.4,2.7,2.2,4.4,2.2
			c2.9,0,5.3-2.3,5.5-5.2h0V6.4h1L11.5,4.2z"/>
		<path class="st0" d="M6.5,1C3.6,1,1.2,3.3,1,6.2h0v0.4H0l1.5,2.2L3,6.6H2V6.5C2,4,4,2,6.5,2c1.4,0,2.8,0.7,3.6,1.8l0.8-0.6
			C9.9,1.8,8.2,1,6.5,1z"/>
		<circle class="st1" cx="6.5" cy="6.5" r="2.5"/>
	</svg>

	<svg id="icon-tool-scale" viewBox="0 0 13 13">
		<style type="text/css">
			.st0{fill:#333333;}
			.st1{fill:#33333360;}
		</style>
		<polygon class="st0" points="10.5,4.7 11,2 8.3,2.6 9.1,3.3 6.2,6.1 6.9,6.8 9.8,4 "/>
		<polygon class="st0" points="13.1,13 7,13 7,12 12.1,12 12,1 1,1 1,6 0,6 0,0 13,0 "/>
		<rect y="7" class="st1" width="6" height="6"/>
	</svg>

	<svg id="icon-rotate" viewBox="0 0 13 13">
		<style type="text/css">
			.st0{fill:#333333;}
		</style>
		<path class="st0" d="M0.8,6.5C0.8,7.4,3.3,8,4,8.1C3.9,7.1,3.9,6,4,5C3.6,5.1,3.2,5.1,2.9,5.2L2.7,4.5c0.4-0.1,0.9-0.2,1.4-0.3
			C4.3,2.7,5,0,6.5,0c1.5,0,2.2,2.7,2.4,4.2C10.3,4.4,13,5.1,13,6.5c0,1.5-2.7,2.2-4.2,2.4c-0.1,0.5-0.2,1-0.3,1.4l-0.8-0.2
			C7.9,9.8,7.9,9.4,8,9C7,9.1,5.9,9.1,4.9,9c0.1,0.7,0.7,3.2,1.5,3.2c0.2,0,0.4-0.1,0.5-0.3l-0.7-0.4l1.8-0.7l0.3,2l-0.7-0.4
			C7.3,12.7,6.9,13,6.5,13c-1.5,0-2.2-2.9-2.4-4.1C2.9,8.7,0,8.1,0,6.5c0-0.5,0.3-0.9,0.7-1.2L0.3,4.6l2,0.3L1.5,6.8L1.1,6
			C0.9,6.2,0.8,6.4,0.8,6.5L0.8,6.5z M8.1,8.2c0.1-1.1,0.1-2.2,0-3.3C7,4.8,5.9,4.8,4.8,4.9C4.7,6,4.7,7.1,4.8,8.2
			C5.9,8.3,7,8.3,8.1,8.2L8.1,8.2z M12.2,6.5c0-0.9-2.6-1.4-3.3-1.6C9,6,9,7.1,8.9,8.1C9.7,8,12.2,7.5,12.2,6.5L12.2,6.5z M8,4.1
			C7.9,3.3,7.4,0.8,6.5,0.8C5.5,0.8,5,3.3,4.9,4.1C5.9,4,7,4,8,4.1L8,4.1z"/>
	</svg>

	<svg id="icon-zoom" viewBox="0 0 13 13">
		<style type="text/css">
			.st0{fill:#333333;}
		</style>
		<path class="st0" d="M8.1,9.4c-0.8,0.6-1.9,1-3,1C2.3,10.3,0,8,0,5.2C0,2.3,2.3,0,5.2,0s5.2,2.3,5.2,5.2c0,1.1-0.4,2.1-1,3l3.4,3.4
			c0.3,0.3,0.3,0.9,0,1.2l0,0c-0.3,0.3-0.9,0.3-1.2,0L8.1,9.4L8.1,9.4z M5.2,9.1c2.2,0,3.9-1.8,3.9-3.9c0-2.2-1.8-3.9-3.9-3.9
			C3,1.2,1.2,3,1.2,5.2C1.2,7.3,3,9.1,5.2,9.1L5.2,9.1z"/>
		<rect x="2.5" y="4.7" class="st0" width="5.4" height="1"/>
		<rect x="4.7" y="2.5" class="st0" width="1" height="5.4"/>
	</svg>

	<svg id="icon-pan" viewBox="0 0 13 13">
		<style type="text/css">
			.st0{fill:#333333;}
		</style>
		<path class="st0" d="M6.9,1C6.5,1,6.2,1.4,6.2,1.8v4.7H5.9V2.7C5.9,2.3,5.6,2,5.1,2C4.7,2,4.4,2.3,4.4,2.7v5.7L3.2,6.8
			C3.1,6.7,2.8,6.5,2.5,6.5C2,6.5,1.5,6.9,1.5,7.4c0,0.2,0.1,0.4,0.2,0.5l2.7,3.7C4.6,11.9,4.9,12,5.2,12h5c0.3,0,0.6-0.3,0.7-0.6
			l0.5-2.9c0-0.2,0-0.3,0-0.4V4.5c0-0.4-0.3-0.8-0.8-0.8S9.8,4.1,9.8,4.5v2H9.6V2.7C9.6,2.3,9.2,2,8.8,2S8,2.3,8,2.7v3.8H7.8V1.8
			C7.8,1.4,7.4,1,6.9,1z M6.9,0.1c0.7,0,1.2,0.3,1.5,0.9c0.1,0,0.2,0,0.3,0c0.9,0,1.7,0.8,1.7,1.7v0.1c1-0.1,1.8,0.7,1.8,1.7v3.6
			c0,0.2,0,0.4-0.1,0.6l-0.5,2.9c-0.2,0.8-0.8,1.3-1.5,1.3h-5c-0.6,0-1.1-0.3-1.5-0.8L1,8.5c-0.3-0.3-0.3-0.7-0.3-1
			c0-1,0.9-1.8,1.8-1.8c0.3,0,0.7,0.1,0.9,0.3V2.7C3.4,1.8,4.2,1,5.1,1c0.1,0,0.2,0,0.3,0C5.7,0.4,6.3,0.1,6.9,0.1z"/>
	</svg>

	<svg id="icon-select-vertex" viewBox="0 0 13 13">
		<style type="text/css">
			.st0{fill:#333333;}
			.st1{fill:#33333370;}
		</style>
		<path class="st0" d="M13,0H4.4L0,4.4V13h8.6L13,8.6V0z M12,8l-4,4H1V5l4-4h7V8z"/>
		<rect class="st1" x="6" y="4" width="2" height="2"/>
	</svg>

	<svg id="icon-select-line" viewBox="0 0 13 13">
		<style type="text/css">
			.st0{fill:#333333;}
			.st1{fill:#33333370;}
		</style>
		<path class="st0" d="M13,0H4.4L0,4.4V13h8.6L13,8.6V0z M12,8l-4,4H1V5l4-4h7V8z"/>
		<rect class="st1" x="7" y="5" width="1" height="7"/>
	</svg>

	<svg id="icon-select-face" viewBox="0 0 13 13">
		<style type="text/css">
			.st0{fill:#333333;}
			.st1{fill:#33333370;}
		</style>
		<path class="st0" d="M13,0H4.4L0,4.4V13h8.6L13,8.6V0z M12,8l-4,4H1V5l4-4h7V8z"/>
		<rect class="st1" x="1" y="5" width="7" height="7"/>
	</svg>

	<svg id="icon-view-wireframe" viewBox="0 0 13 13">
		<style type="text/css">
			.st0{fill:none;stroke:#000000;stroke-miterlimit:10;}
		</style>
		<circle class="st0" cx="6.5" cy="6.5" r="6"/>
		<path class="st0" d="M6.5,12.5c-1.1,0-2-2.7-2-6s0.9-6,2-6"/>
		<line class="st0" x1="0.9" y1="4.5" x2="12.2" y2="4.5"/>
		<line class="st0" x1="0.9" y1="8.5" x2="12.2" y2="8.5"/>
	</svg>
	
	<svg id="icon-view-solid" viewBox="0 0 13 13">
		<style type="text/css">
			.st0{fill:#33333360;stroke:#000000;stroke-miterlimit:10;}
		</style>
		<circle class="st0" cx="6.5" cy="6.5" r="6"/>
	</svg>

	<svg id="icon-view-flat" viewBox="0 0 13 13">
		<style type="text/css">
			.st0{fill:none;stroke:#000000;stroke-miterlimit:10;}
			.st1{fill:#33333360;}
		</style>
		<circle class="st0" cx="6.5" cy="6.5" r="6"/>
		<path class="st0" d="M6.5,12.5c-1.1,0-2-2.7-2-6s0.9-6,2-6"/>
		<path class="st0" d="M12.5,6.5c0,0.9-2.7,1.6-6,1.6s-6-0.7-6-1.6"/>
		<path class="st1" d="M5,1.2C4.3,2.5,4,4.5,4,6.5c0,0.3,0,0.6,0,0.9C2.2,7.2,1.1,6.8,1,6.5C1,4,2.7,1.9,5,1.2z M6.5,12
			c-0.4,0-1.1-1.2-1.4-3.5c0.5,0,0.9,0,1.4,0c1.6,0,3.9-0.2,5.3-0.8C11.3,10.2,9.1,12,6.5,12z"/>
	</svg>
	
	<svg id="icon-view-material" viewBox="0 0 13 13">
		<style type="text/css">
			.st0{fill:none;stroke:#000000;stroke-miterlimit:10;}
			.st1{fill:#33333390;}
		</style>
		<circle class="st0" cx="6.5" cy="6.5" r="6"/>
		<path class="st1" d="M5,1.2C4.3,2.5,4,4.5,4,6.5c0,0.3,0,0.6,0,0.9C2.2,7.2,1.1,6.8,1,6.5C1,4,2.7,1.9,5,1.2z M6.5,12
			c-0.4,0-1.1-1.2-1.4-3.5c0.5,0,0.9,0,1.4,0c1.6,0,3.9-0.2,5.3-0.8C11.3,10.2,9.1,12,6.5,12z"/>
	</svg>

	<svg id="icon-sidebar" viewBox="0 0 13 13">
		<style type="text/css">
			.st0{fill:#333;}
		</style>
		<path class="st0" d="M11,2H6H5H2H1v1v7v1h1h3h1h5h1v-1V3V2H11z M2,10V3h3v7H2z M11,10H6V3h5V10z"/>
		<rect x="3" y="4" class="st0" width="1" height="1"/>
		<rect x="3" y="6" class="st0" width="1" height="1"/>
	</svg>

	<svg id="icon-folder-open" viewBox="0 0 17 17">
		<style type="text/css">
			.st0{fill:#333;}
		</style>
		<path class="st0" d="M16,9.5c0,0.2-0.1,0.4-0.2,0.5L13.1,13c-0.5,0.5-1.4,1-2.1,1H2.3c-0.3,0-0.7-0.1-0.7-0.4c0-0.2,0.1-0.4,0.2-0.5L4.5,10
			C5,9.4,5.9,9,6.6,9h8.7C15.6,9,16,9.1,16,9.5z M13.2,6.4V8H6.6c-1,0-2.2,0.6-2.9,1.3L1,12.4c0-0.1,0-0.1,0-0.2l0-7.7
			C1,3.5,1.3,3,2.3,3h3.5c1,0,1.4,0.3,1.4,1.3V5h4.7C12.8,5,13.2,5.4,13.2,6.4z"/>
	</svg>

	<svg id="icon-clipboard" viewBox="0 0 17 17">
		<style type="text/css">
			.st0{fill:#333;}
		</style>
		<path class="st0" d="M14.6,2.9h-4.2c0-1-0.8-1.9-1.9-1.9S6.6,1.8,6.6,2.9H2.4c-0.3,0-0.5,0.2-0.5,0.5v12.2c0,0.3,0.2,0.5,0.5,0.5h12.2
			c0.3,0,0.5-0.2,0.5-0.5V3.3C15.1,3.1,14.9,2.9,14.6,2.9z M8.5,1.9c0.5,0,0.9,0.4,0.9,0.9S9,3.8,8.5,3.8S7.6,3.4,7.6,2.9
			S8,1.9,8.5,1.9z M14,15H3V4h1.7v1.5C4.7,5.8,5,6,5.2,6h6.6c0.3,0,0.5-0.2,0.5-0.5V4H14V15z"/>
		<path class="st0" d="M7.6,13.6l-3-3.5l0.9-0.9l2.2,1.7l4-3.6l0.9,0.9L7.6,13.6z"/>
	</svg>

	<svg id="icon-3d-file" viewBox="0 0 34 34">
		
	</svg>


	<svg id="icon-arrow" viewBox="0 0 13 13">
		<style type="text/css">
			.st0{fill:#777;stroke:#777;stroke-linejoin:round;stroke-miterlimit:10;}
		</style>
		<polygon class="st0" points="3.5,3.5 3.5,9.5 9.5,6.5 "/>
	</svg>

	<svg id="icon-eye-on" viewBox="0 0 15 15">
		<style type="text/css">
			.st0{fill:#ccc;}
		</style>
		<path class="st0" d="M14,7.3c-1.1-2.3-4.4-4.1-6.7-4.1c-2.4,0-4.8,1.5-6.2,4C1,7.3,1,7.5,1.1,7.7c1,2,3.6,4.1,6.4,4.1c2.5,0,4.9-1.5,6.4-4
			C14,7.6,14,7.4,14,7.3z M7.4,4.8c0.2,0,0.4,0.2,0.4,0.4c0,0.2-0.2,0.4-0.4,0.4c-0.6,0-1.2,0.5-1.2,1.2c0,0.2-0.2,0.4-0.4,0.4
			c-0.2,0-0.4-0.2-0.4-0.4C5.3,5.7,6.2,4.8,7.4,4.8z M7.5,10.7c-2.3,0-4.5-1.6-5.4-3.3C2.9,6.3,3.9,5.3,5,4.8
			C4.5,5.3,4.2,6.1,4.2,6.9c0,1.8,1.4,3.2,3.2,3.2c1.8,0,3.2-1.4,3.2-3.2c0-0.8-0.3-1.5-0.7-2c1.2,0.6,2.4,1.5,3,2.6
			C11.5,9.5,9.5,10.7,7.5,10.7z"/>
	</svg>

	<svg id="icon-eye-off" viewBox="0 0 15 15">
		<style type="text/css">
			.st0{fill:#ccc;}
		</style>
		<path class="st0" d="M10.6,7c0-0.2,0-0.4-0.1-0.6l-2,3.6C9.7,9.5,10.6,8.3,10.6,7z"/>
		<path class="st0" d="M13.9,7.3c-0.5-1-1.4-1.9-2.5-2.6L11,5.6c0.8,0.5,1.5,1.2,1.9,1.9c-1.2,1.9-3,3-4.8,3.2l-0.6,1.1c2.5,0,4.8-1.5,6.4-4
			C14,7.7,14,7.5,13.9,7.3z"/>
		<path class="st0" d="M9.9,4.9C9.9,4.9,9.9,4.9,9.9,4.9l1-1.9c0,0,0-0.1,0-0.1c0,0,0-0.1-0.1-0.1L9.7,2.2c-0.1,0-0.1,0-0.2,0L8.8,3.5
			C8.3,3.3,7.8,3.3,7.3,3.3c-2.4,0-4.8,1.5-6.2,4C1,7.4,1,7.6,1,7.7C1.7,9,3,10.3,4.6,11.1l-0.5,0.8c0,0,0,0.1,0,0.1
			c0,0,0,0.1,0.1,0.1l1.2,0.7c0,0,0,0,0.1,0c0,0,0.1,0,0.1-0.1L9.9,4.9C9.9,4.9,9.9,4.9,9.9,4.9z M5.1,10.2c-1.3-0.6-2.4-1.7-3-2.7
			C2.9,6.3,3.9,5.4,5,4.8C4.5,5.4,4.2,6.1,4.2,7c0,1,0.5,2,1.3,2.5L5.1,10.2z M7.4,5.8c-0.6,0-1.2,0.5-1.2,1.2c0,0.2-0.2,0.4-0.4,0.4
			c-0.2,0-0.4-0.2-0.4-0.4c0-1.1,0.9-2,2-2c0.2,0,0.4,0.2,0.4,0.4C7.8,5.6,7.6,5.8,7.4,5.8z"/>
	</svg>

	<svg id="icon-scene" viewBox="0 0 15 15">
		<style type="text/css">
			.st0{fill:#990;}
		</style>
		<path class="st0" d="M7.5,1c0,1.1-0.3,2.3-0.9,3.2C6,5.2,5.2,6,4.2,6.6S2.2,7.5,1,7.5V1H7.5z"/>
		<path class="st0" d="M7.5,1c0,1.7,0.7,3.4,1.9,4.6s2.9,1.9,4.6,1.9V1H7.5z"/>
		<path class="st0" d="M10.7,14c0-3.6,1.5-6.5,3.2-6.5V14H10.7z"/>
		<path class="st0" d="M4.2,14c0-3.6-1.5-6.5-3.2-6.5V14H4.2z"/>
	</svg>

	<svg id="icon-camera" viewBox="0 0 15 15">
		<style type="text/css">
			.st0{fill:#f90;}
		</style>
		<polygon class="st0" points="13,9.7 10.7,11.4 10.7,9.7 4.7,9.7 4.7,10.5 3.7,10.5 3.7,9.7 2.9,9.7 2.9,12.2 3.7,12.2 3.7,11.3 
			4.7,11.3 4.7,12.7 5.9,13.9 10.7,13.9 10.7,12.1 13.1,13.9 14.1,13.9 14.1,9.7 "/>
		<path class="st0" d="M10.2,1.1C8.4,1.1,6.9,2.3,6.5,4C6,3.2,5.1,2.7,4,2.7c-1.7,0-3.1,1.4-3.1,3.1S2.3,8.9,4,8.9h6.2
			c2.1,0,3.9-1.7,3.9-3.9C14.1,2.8,12.3,1.1,10.2,1.1z M4.1,6.6c-0.4,0-0.9-0.3-0.9-0.9c0-0.4,0.3-0.9,0.9-0.9S5,5.2,5,5.7
			S4.5,6.6,4.1,6.6z M10.2,5.7c-0.4,0-0.9-0.3-0.9-0.9S9.7,4,10.2,4c0.4,0,0.9,0.3,0.9,0.9S10.6,5.7,10.2,5.7z"/>
	</svg>

	<svg id="icon-light" viewBox="0 0 15 15">
		<style type="text/css">
			.st0{fill:#ff0;}
		</style>
		<path class="st0" d="M7.5,1c-2,0-4,1.6-4,3.8c0,2.9,2.2,3.5,2.2,5.6h3.6c0-2,2.2-2.6,2.2-5.6C11.5,2.6,9.5,1,7.5,1L7.5,1z M5.7,11
			v0.7h3.6V11H5.7z M5.7,12.4c0,0.3,0.3,0.7,0.7,0.7h2.3c0.3,0,0.7-0.3,0.7-0.7H5.7L5.7,12.4z M6.8,13.3c0,0.3,0.3,0.7,0.7,0.7
			c0.3,0,0.7-0.3,0.7-0.7H6.8L6.8,13.3z"/>
	</svg>

	<svg id="icon-mesh" viewBox="0 0 15 15">
		<style type="text/css">
			.st0{fill:#393;}
		</style>
		<path class="st0" d="M7.5,12.9L7.5,12.9c-0.4,0-0.8-0.3-1-0.6L2.3,3.6c-0.2-0.3-0.2-0.7,0.1-1c0.2-0.3,0.5-0.5,0.9-0.5h8.5
			c0.3,0,0.7,0.2,0.9,0.5c0.2,0.3,0.2,0.7,0.1,1l-4.2,8.7C8.3,12.7,7.9,12.9,7.5,12.9z M5,4.2l2.5,5.3L10,4.2C10,4.2,5,4.2,5,4.2z"/>
		<circle class="st0" cx="11.7" cy="3.1" r="2.1"/>
		<circle class="st0" cx="7.5" cy="11.9" r="2.1"/>
		<circle class="st0" cx="3.3" cy="3.1" r="2.1"/>
	</svg>

	<svg id="icon-group" viewBox="0 0 15 15">
		<style type="text/css">
			.st0{fill:#999;}
		</style>
		<path class="st0" d="M14,8.4c0,0.2-0.1,0.3-0.2,0.4l-2.3,2.6c-0.4,0.4-1.2,0.9-1.8,0.9H2.2c-0.3,0-0.6-0.1-0.6-0.3
			c0-0.2,0.1-0.3,0.2-0.4l2.3-2.7c0.4-0.5,1.2-0.9,1.8-0.9h7.5C13.6,7.9,14,8,14,8.4z M11.5,5.7v1.4H5.9C5,7.1,4,7.6,3.4,8.2L1,10.9
			c0-0.1,0-0.1,0-0.2V4.1c0-0.9,0.3-1.3,1.1-1.3h3C6,2.8,6.4,3,6.4,3.9v0.6h4C11.2,4.5,11.5,4.8,11.5,5.7z"/>
	</svg>

	<svg id="icon-cog" viewBox="0 0 15 15">
		<style type="text/css">
			.st0{fill:#d63;}
		</style>
		<path class="st0" d="M12.3,8.1c0-0.2,0-0.4,0-0.6s0-0.5,0-0.6l1.4-1.1c0.1-0.1,0.1-0.2,0.1-0.4l-1.3-2.2c-0.1-0.1-0.2-0.2-0.4-0.1
			l-1.8,0.5C10,3.4,9.7,3.2,9.3,3L9.1,1.3C9,1.2,8.9,1,8.8,1H6.2C6.1,1,5.9,1.2,5.8,1.3L5.6,3C5.2,3.2,4.9,3.4,4.5,3.6L2.9,3
			C2.8,3,2.5,3,2.5,3.2L1.2,5.4c-0.1,0.1,0,0.4,0.1,0.5l1.3,1.1c0,0.2-0.1,0.5-0.1,0.6s0,0.5,0,0.6L1.4,9.1C1.2,9.3,1.1,9.5,1.2,9.6
			l1.3,2.2C2.7,12,2.8,12.1,2.9,12l1.6-0.6c0.4,0.2,0.7,0.5,1.1,0.6l0.2,1.8c0,0.1,0.1,0.2,0.4,0.2h2.6c0.1,0,0.4-0.1,0.4-0.2L9.3,12
			c0.4-0.1,0.7-0.4,1.1-0.6L12,12c0.1,0,0.4,0,0.4-0.1l1.3-2.2c0.1-0.1,0-0.4-0.1-0.4L12.3,8.1z M7.5,10.3c-1.5,0-2.8-1.3-2.8-2.8
			s1.3-2.8,2.8-2.8s2.8,1.3,2.8,2.8S9,10.3,7.5,10.3z"/>
	</svg>

	<svg id="icon-tools" viewBox="0 0 15 15">
		<style type="text/css">
			.st0{fill:#69e;}
		</style>
		<path class="st0" d="M11.4,4.8L11.4,4.8c0-0.1,0-0.1,0.1-0.2C11.8,4.5,12,4.3,12.2,4c0.6-0.6,0.7-1.5,0.5-2.3c-0.2-0.7-0.6-1.2-1.1-1.6
			c0,0-0.1,0-0.1-0.1c0,0-0.1,0-0.1,0c0,0,0,0-0.1,0.1c0,0.1,0,0.1,0,0.2c0,0.4,0,0.8,0,1.2c0,0.4-0.2,0.8-0.5,1
			c-0.3,0.2-0.6,0.4-1,0.2l0,0C9.6,2.6,9.4,2.4,9.3,2.2C9.1,2,9,1.7,9,1.5C9,1,9,0.6,9,0.2l0,0C9,0.1,9,0.1,9,0c-0.1,0-0.1,0-0.2,0.1
			C8.4,0.4,8.1,0.8,7.9,1.2C7.4,2.1,7.5,3,8,3.8l0,0c0.2,0.3,0.5,0.6,0.9,0.8C9,4.6,9,4.7,9,4.8l0,0c0,0.1,0,9,0,9c0,0.1,0,0.2,0,0.3
			c0,0.2,0.1,0.4,0.2,0.6s0.3,0.3,0.5,0.4c0.8,0.3,1.6-0.3,1.6-1.2L11.4,4.8"/>
		<path class="st0" d="M5.1,11.3c0-0.3,0-0.5-0.1-0.8l0,0c-0.1-0.4-0.1-0.7-0.2-1.1c-0.1-0.3-0.1-0.7,0.1-1C5,7.9,5.1,7.5,5,7l0,0
			c0-0.3-0.1-0.4-0.4-0.4c-0.2,0-0.4,0-0.6,0c-0.1,0-0.1,0-0.1-0.1c0-1,0-2,0-2.9c0-0.2,0-0.3,0.1-0.5c0.1-0.2,0.2-0.4,0.3-0.7
			c0.1-0.2,0.1-0.3,0.1-0.5C4.3,1.4,4.2,0.8,4,0.3c0,0,0-0.1-0.1-0.1c-0.1,0-0.1,0-0.2,0l0,0c-0.1,0-0.3,0-0.4,0c-0.2,0-0.3,0-0.3,0.2
			C3,0.9,2.9,1.4,2.8,1.9c0,0.2,0,0.3,0.1,0.5C2.9,2.5,3,2.7,3.1,2.8C3.2,3,3.3,3.3,3.3,3.5c0,1,0,2,0,3c0,0,0,0.1,0,0.1
			c0,0-0.1,0-0.1,0c-0.2,0-0.5,0-0.7,0c-0.1,0-0.2,0-0.2,0.1C2.2,6.8,2.2,6.9,2.2,7c0,0.4,0,0.7,0.1,1.1l0,0c0.3,0.8,0.3,0.8,0.1,1.7
			c-0.1,0.5-0.2,1-0.2,1.5c0,1.1,0,1.6,0,2.7c0,0.3,0.1,0.4,0.4,0.4l0,0c0,0.1,0.1,0.2,0.1,0.2c0.1,0.2,0.3,0.3,0.5,0.4
			c0.6,0.2,1.2-0.1,1.5-0.6c0,0,0.1,0,0.1,0l0,0c0.1,0,0.1,0,0.2-0.1c0.1-0.1,0.1-0.1,0.1-0.2h0c0,0,0-0.1,0-0.1
			C5,12.9,5.1,12.4,5.1,11.3z"/>
	</svg>

	<svg id="icon-material" viewBox="0 0 15 15">
		<style type="text/css">
			.st0{fill:none;stroke:#5DD;stroke-miterlimit:10;}
			.st1{fill:#5DD;}
		</style>
		<circle class="st0" cx="7.5" cy="7.5" r="6"/>
		<path class="st1" d="M6,2.2C5.3,3.5,5,5.5,5,7.5c0,0.3,0,0.6,0,0.9C3.2,8.2,2.1,7.8,2,7.5C2,5,3.7,2.9,6,2.2z M7.5,13c-0.4,0-1.1-1.2-1.4-3.5
			c0.5,0,0.9,0,1.4,0c1.6,0,3.9-0.2,5.3-0.8C12.3,11.2,10.1,13,7.5,13z"/>
	</svg>

	<svg id="icon-texture" viewBox="0 0 15 15">
		<style type="text/css">
			.st0{fill:#333;stroke:#333;stroke-miterlimit:10;}
			.st1{fill:#888;}
		</style>
		<rect class="st0" x="0" y="0" width="14" height="14"/>
		<rect class="st1" x="1" y="1" width="3" height="3"/>
		<rect class="st1" x="4" y="4" width="3" height="3"/>
		<rect class="st1" x="7" y="7" width="3" height="3"/>
		<rect class="st1" x="10" y="10" width="3" height="3"/>
		<rect class="st1" x="1" y="7" width="3" height="3"/>
		<rect class="st1" x="4" y="10" width="3" height="3"/>
		<rect class="st1" x="7" y="1" width="3" height="3"/>
		<rect class="st1" x="10" y="4" width="3" height="3"/>
	</svg>

</svg>